<svg xmlns="http://www.w3.org/2000/svg" viewBox="0 0 120 150">
  <defs>
    <radialGradient id="bg-bulwark" cx="50%" cy="28%" r="85%">
      <stop offset="0%" stop-color="#2c3340"/>
      <stop offset="100%" stop-color="#0d1015"/>
    </radialGradient>
  </defs>
  <rect width="120" height="150" fill="url(#bg-bulwark)"/>
  <circle cx="94" cy="24" r="13" fill="#b03040" opacity="0.45"/>
  <path d="M12 150 Q18 104 60 100 Q102 104 108 150 Z" fill="#59667a"/>
  <path d="M12 150 Q13 112 40 104 L48 150 Z" fill="#6f7d8f"/>
  <path d="M108 150 Q107 112 80 104 L72 150 Z" fill="#6f7d8f"/>
  <path d="M40 104 L44 96 L76 96 L80 104 Z" fill="#c3d0e2" opacity="0.7"/>
  <rect x="51" y="84" width="18" height="22" fill="#c9976a"/>
  <ellipse cx="60" cy="60" rx="27" ry="30" fill="#d9a97f"/>
  <path d="M33 54 Q33 26 60 24 Q87 26 87 54 Q74 46 60 46 Q46 46 33 54 Z" fill="#2e2a28"/>
  <path d="M40 54 L54 52" stroke="#241f1d" stroke-width="3" stroke-linecap="round" fill="none"/>
  <path d="M66 52 L80 54" stroke="#241f1d" stroke-width="3" stroke-linecap="round" fill="none"/>
  <ellipse cx="48" cy="63" rx="4.4" ry="5" fill="#1c150f"/>
  <ellipse cx="72" cy="63" rx="4.4" ry="5" fill="#1c150f"/>
  <circle cx="49.6" cy="61" r="1.4" fill="#e8f0fa"/>
  <circle cx="73.6" cy="61" r="1.4" fill="#e8f0fa"/>
  <path d="M36 44 L46 70" stroke="#a5764e" stroke-width="2" opacity="0.75"/>
  <path d="M50 82 Q60 84 70 82" stroke="#8f6543" stroke-width="2.4" fill="none" stroke-linecap="round"/>
  <path d="M44 78 Q47 80 50 78" stroke="#a5764e" stroke-width="1.6" opacity="0.5" fill="none"/>
</svg>
